<svg width="125" height="24" viewBox="0 0 125 24" fill="none" xmlns="http://www.w3.org/2000/svg">
<path d="M9.91192 18.36L9.11992 17.256C9.10392 17.272 9.03192 17.32 8.90392 17.4C8.79192 17.464 8.71192 17.512 8.66392 17.544C8.61592 17.576 8.52792 17.632 8.39992 17.712C8.27192 17.776 8.15992 17.832 8.06392 17.88C7.96792 17.912 7.84792 17.952 7.70392 18C7.55992 18.064 7.42392 18.112 7.29592 18.144C7.16792 18.192 7.01592 18.232 6.83992 18.264C6.67992 18.296 6.51192 18.32 6.33592 18.336C6.15992 18.352 5.97592 18.36 5.78392 18.36C4.40792 18.36 3.23192 17.856 2.25592 16.848C1.29592 15.824 0.815918 14.496 0.815918 12.864C0.815918 11.968 0.959918 11.16 1.24792 10.44C1.53592 9.70397 1.90392 9.11197 2.35192 8.66397C2.81592 8.21597 3.33592 7.83997 3.91192 7.53597C4.48792 7.23197 5.03992 7.02397 5.56792 6.91197C6.11192 6.78397 6.63992 6.71997 7.15192 6.71997C8.01592 6.71997 8.63992 6.75197 9.02392 6.81597V5.25597C9.02392 4.67997 9.01592 4.26397 8.99992 4.00797C8.99992 3.75197 8.97592 3.46397 8.92792 3.14397C8.89592 2.82397 8.82392 2.60797 8.71192 2.49597C8.61592 2.38397 8.47992 2.32797 8.30392 2.32797H7.65592L7.58392 1.60797C8.22392 1.41597 9.15992 1.22397 10.3919 1.03197C11.6399 0.823971 12.4879 0.719971 12.9359 0.719971V15.504C12.9359 15.808 12.9919 16.016 13.1039 16.128C13.2319 16.224 13.4879 16.32 13.8719 16.416L14.4479 16.56V17.16C13.3439 17.576 11.8319 17.976 9.91192 18.36ZM9.02392 16.44V8.68797C9.00792 8.67197 8.97592 8.62397 8.92792 8.54397C8.87992 8.46397 8.83992 8.41597 8.80792 8.39997C8.79192 8.36797 8.75992 8.31997 8.71192 8.25597C8.66392 8.19197 8.61592 8.15197 8.56792 8.13597C8.53592 8.10397 8.48792 8.06397 8.42392 8.01597C8.35992 7.96797 8.29592 7.93597 8.23192 7.91997C8.16792 7.90397 8.08792 7.88797 7.99192 7.87197C7.89592 7.83997 7.79192 7.82397 7.67992 7.82397C7.56792 7.80797 7.43992 7.79997 7.29592 7.79997C6.63992 7.79997 6.09592 8.15997 5.66392 8.87997C5.23192 9.59997 5.01592 10.496 5.01592 11.568C5.01592 12.816 5.29592 13.976 5.85592 15.048C6.43192 16.104 7.15992 16.632 8.03992 16.632C8.27992 16.632 8.60792 16.568 9.02392 16.44Z" fill="#17171A"/>
<path d="M27.0078 17.472V17.808C26.2078 18.176 25.3438 18.36 24.4158 18.36C23.1838 18.36 22.3278 17.928 21.8478 17.064C20.8398 17.928 19.8238 18.36 18.7998 18.36C17.8558 18.36 17.0798 18.104 16.4718 17.592C15.8638 17.064 15.5598 16.384 15.5598 15.552C15.5598 14.976 15.7278 14.448 16.0638 13.968C16.3998 13.488 16.7918 13.112 17.2398 12.84C17.6878 12.552 18.2158 12.304 18.8238 12.096C19.4478 11.888 19.9518 11.744 20.3358 11.664C20.7358 11.568 21.1278 11.496 21.5118 11.448V10.776C21.5118 9.22397 20.8958 8.44797 19.6638 8.44797C18.4798 8.44797 17.5838 9.22397 16.9758 10.776H16.6638C16.3118 10.168 16.0878 9.65597 15.9918 9.23997C16.5358 8.55197 17.3598 7.95997 18.4638 7.46397C19.5838 6.96797 20.6318 6.71997 21.6078 6.71997C23.1438 6.71997 24.1598 7.08797 24.6558 7.82397C25.1678 8.54397 25.4238 9.69597 25.4238 11.28V14.28C25.4238 15.448 25.5198 16.24 25.7118 16.656C25.9038 17.072 26.3358 17.344 27.0078 17.472ZM21.5118 12.552H20.8398C20.4078 12.552 20.0158 12.752 19.6638 13.152C19.3278 13.536 19.1598 14.048 19.1598 14.688C19.1598 15.168 19.3198 15.616 19.6398 16.032C19.9758 16.432 20.3678 16.632 20.8158 16.632C21.0718 16.632 21.3598 16.568 21.6798 16.44C21.5678 16.104 21.5118 15.696 21.5118 15.216V12.552Z" fill="#17171A"/>
<path d="M27.7171 18V17.28L28.1011 17.208C28.5491 17.128 28.8211 16.992 28.9171 16.8C29.0291 16.592 29.0851 16.176 29.0851 15.552V11.256C29.0851 10.68 29.0771 10.264 29.0611 10.008C29.0611 9.75197 29.0371 9.46397 28.9891 9.14397C28.9571 8.82397 28.8851 8.60797 28.7731 8.49597C28.6771 8.38397 28.5411 8.32797 28.3651 8.32797H27.7171L27.6451 7.60797C28.4131 7.39997 29.3811 7.19997 30.5491 7.00797C31.7171 6.81597 32.5331 6.71997 32.9971 6.71997V15.552C32.9971 16.176 33.0451 16.592 33.1411 16.8C33.2531 16.992 33.5331 17.128 33.9811 17.208L34.3651 17.28V18H27.7171ZM29.3971 2.11197C29.8131 1.71197 30.3251 1.51197 30.9331 1.51197C31.5411 1.51197 32.0531 1.71197 32.4691 2.11197C32.8851 2.49597 33.0931 2.98397 33.0931 3.57597C33.0931 4.15197 32.8851 4.63197 32.4691 5.01597C32.0531 5.39997 31.5411 5.59197 30.9331 5.59197C30.3251 5.59197 29.8131 5.39997 29.3971 5.01597C28.9811 4.63197 28.7731 4.15197 28.7731 3.57597C28.7731 2.98397 28.9811 2.49597 29.3971 2.11197Z" fill="#17171A"/>
<path d="M35.1674 18V17.28L35.5514 17.208C35.9994 17.128 36.2714 16.992 36.3674 16.8C36.4794 16.592 36.5354 16.176 36.5354 15.552V5.25597C36.5354 4.67997 36.5274 4.26397 36.5114 4.00797C36.5114 3.75197 36.4874 3.46397 36.4394 3.14397C36.4074 2.82397 36.3354 2.60797 36.2234 2.49597C36.1274 2.38397 35.9914 2.32797 35.8154 2.32797H35.1674L35.0954 1.60797C35.9754 1.38397 36.9754 1.18397 38.0954 1.00797C39.2154 0.81597 39.9994 0.719971 40.4474 0.719971V15.552C40.4474 16.176 40.4954 16.592 40.5914 16.8C40.7034 16.992 40.9834 17.128 41.4314 17.208L41.8154 17.28V18H35.1674Z" fill="#17171A"/>
<path d="M52.7937 9.69597L48.8577 18.696C48.1857 20.264 47.6337 21.328 47.2017 21.888C46.3057 23.04 45.1457 23.624 43.7217 23.64C43.5297 23.64 43.2577 23.592 42.9057 23.496C42.9057 22.84 43.0657 22.272 43.3857 21.792C43.7057 21.328 44.0897 20.976 44.5377 20.736C44.9857 20.512 45.4337 20.304 45.8817 20.112C46.3457 19.936 46.7377 19.736 47.0577 19.512C47.3777 19.288 47.5457 19.016 47.5617 18.696C47.5617 18.36 47.3777 17.776 47.0097 16.944L43.4337 9.28797C43.3217 9.04797 43.2497 8.90397 43.2177 8.85597C43.1857 8.79197 43.1297 8.68797 43.0497 8.54397C42.9697 8.39997 42.9057 8.31197 42.8577 8.27997C42.8097 8.23197 42.7377 8.17597 42.6417 8.11197C42.5457 8.04797 42.4417 7.99997 42.3297 7.96797L41.7297 7.79997V7.07997H48.8577V7.79997L48.1617 7.94397C47.8897 8.00797 47.7137 8.08797 47.6337 8.18397C47.5537 8.26397 47.5137 8.36797 47.5137 8.49597C47.5137 8.51197 47.5617 8.67997 47.6577 8.99997L49.5537 14.112H49.6017L51.1137 9.74397C51.3057 9.13597 51.4017 8.73597 51.4017 8.54397C51.4017 8.27197 51.1537 8.07997 50.6577 7.96797L49.6737 7.79997V7.07997H54.6657V7.79997L54.2337 7.89597C54.1057 7.92797 53.9937 7.95997 53.8977 7.99197C53.8177 8.02397 53.7377 8.07997 53.6577 8.15997C53.5777 8.22397 53.5137 8.27997 53.4657 8.32797C53.4177 8.35997 53.3617 8.43997 53.2977 8.56797C53.2337 8.69597 53.1857 8.79197 53.1537 8.85597C53.1377 8.90397 53.0817 9.03197 52.9857 9.23997C52.9057 9.44797 52.8417 9.59997 52.7937 9.69597Z" fill="#17171A"/>
<path d="M87.7177 16.8698C87.0849 17.3369 85.8116 17.8944 83.8604 17.8944C81.0804 17.8944 78.1724 16.2596 78.1724 12.7413C78.1724 8.05528 81.4948 6.05127 84.448 6.05127C85.6233 6.05127 86.7157 6.32252 87.2807 6.75948C87.2807 7.24917 87.0095 7.97993 86.6479 8.54496H86.4972C86.1281 8.03267 85.224 7.20396 83.6419 7.20396C81.8865 7.20396 80.4174 8.59772 80.4174 11.3551C80.4174 15.2124 82.3988 17.0431 85.1788 17.0431C86.1582 17.0431 87.1828 16.4781 87.5218 16.2822L87.7177 16.8698Z" fill="#17171A"/>
<path d="M97.6393 17.2839C97.3229 17.5023 96.8106 17.8941 95.786 17.8941C94.5429 17.8941 94.0985 17.3818 93.8574 16.8695C93.0739 17.3818 92.1698 17.8941 90.2713 17.8941C88.4632 17.8941 87.2427 16.8695 87.2427 15.5285C87.2427 12.3568 91.4691 11.4 93.6163 10.7671V10.2021C93.6163 8.58986 93.1793 7.19611 91.3486 7.19611C89.3973 7.19611 88.7871 8.733 88.32 9.63706H88.1241C87.8529 9.34324 87.6571 9.10216 87.4913 8.65766C88.2221 7.67827 89.7891 6.04346 92.3732 6.04346C95.1607 6.04346 95.7408 7.50501 95.7408 9.9987V13.4944C95.7408 15.2045 95.7408 17.0353 97.0818 17.0353C97.3229 17.0353 97.4208 16.9825 97.5188 16.9373L97.6393 17.2839ZM93.2622 11.9123C91.8684 11.9123 89.4802 12.5225 89.4802 14.8203C89.4802 16.2141 90.3617 17.0428 91.7479 17.0428C92.8252 17.0428 93.4355 16.2819 93.6012 16.0408V11.9123H93.2622Z" fill="#17171A"/>
<path d="M117.657 16.5308C117.265 16.9 115.607 17.902 113.385 17.902C110.311 17.902 107.795 15.8528 107.795 12.3797C107.795 8.25117 110.65 6.05884 113.46 6.05884C116.73 6.05884 117.438 8.42444 117.755 9.74286C114.967 11.114 112.142 11.8674 110.04 12.3571C110.138 13.8714 111.313 16.7568 114.605 16.7568C116.097 16.7568 117.024 16.1466 117.363 15.9733L117.657 16.5308ZM110.04 11.2798C111.795 10.9634 113.852 10.4511 115.562 9.88603C115.223 8.37174 114.613 6.91018 112.752 6.91018C110.673 6.91018 110.04 9.49427 110.04 11.2798Z" fill="#17171A"/>
<path d="M123.443 9.72024C123.443 8.62031 122.659 6.86494 121.077 6.86494C120.151 6.86494 119.51 7.52792 119.51 8.59772C119.51 11.3852 124.935 10.5716 124.935 14.4816C124.935 16.802 123.029 17.902 120.708 17.902C119.119 17.902 118.267 17.4876 117.604 17.1938C117.235 16.0939 117.137 14.8733 117.137 13.9241H117.793C118.282 15.5137 119.111 17.0958 121.062 17.0958C122.162 17.0958 122.795 16.1466 122.795 15.2877C122.795 11.9653 117.371 13.1406 117.371 9.15521C117.371 7.15122 119.156 6.05127 121.281 6.05127C122.577 6.05127 123.33 6.44306 123.872 6.75948C124.114 7.64093 124.189 8.41689 124.189 9.7127H123.443V9.72024Z" fill="#17171A"/>
<path d="M72.0774 16.5157C71.55 17.0129 69.7795 18.9792 66.4797 19.0093C62.3211 19.047 58.9233 16.2369 58.9233 11.5509C58.9233 5.97585 62.7882 3 66.5777 3C71 3 71.9568 6.20188 72.3863 7.98739C68.6269 9.83317 64.7922 10.8578 61.9594 11.5207C62.0951 13.5699 63.6772 17.4649 68.1297 17.4649C70.1412 17.4649 71.0979 16.139 71.565 15.913L72.0774 16.5157ZM61.9519 10.0592C64.3251 9.62976 67.0975 8.93665 69.4104 8.17573C68.9508 6.12654 68.1221 4.14515 65.6133 4.14515C62.8108 4.15269 61.9519 7.64837 61.9519 10.0592Z" fill="#17171A"/>
<path d="M76.9443 9.72024C76.9443 8.62031 76.1607 6.86494 74.5786 6.86494C73.652 6.86494 73.0191 7.52792 73.0191 8.59772C73.0191 11.3852 78.4435 10.5716 78.4435 14.4816C78.4435 16.802 76.5374 17.902 74.217 17.902C72.6274 17.902 71.776 17.4876 71.1131 17.1938C70.7439 16.0939 70.646 14.8733 70.646 13.9241H71.309C71.7987 15.5137 72.6274 17.0958 74.5786 17.0958C75.6786 17.0958 76.3114 16.1466 76.3114 15.2877C76.3114 11.9653 70.8871 13.1406 70.8871 9.15521C70.8871 7.15122 72.6726 6.05127 74.7971 6.05127C76.0929 6.05127 76.8463 6.44306 77.3887 6.75948C77.6298 7.64093 77.7051 8.41689 77.7051 9.7127H76.9443V9.72024Z" fill="#17171A"/>
<path d="M102.702 6.05127C101.045 6.05127 99.9673 6.75945 99.4324 7.07587C99.4324 6.87999 99.3118 6.32249 99.1385 6.05127C98.2872 6.05127 96.351 6.68413 95.6504 6.90261L95.7483 7.49023L96.2832 7.3471C96.3284 7.3471 96.5017 7.32451 96.6222 7.32451C97.3078 7.32451 97.3078 8.01007 97.3078 10.3983V22.9873H97.2927C97.2927 22.9873 99.4324 23.2133 99.4324 21.7668V21.1415V20.5087V17.6307C99.8241 17.7287 100.412 17.902 101.436 17.902C104.126 17.902 108.028 16.3123 108.028 11.3852C108.028 7.95734 105.61 6.05127 102.702 6.05127ZM102.145 17.0431C100.555 17.0431 100.073 16.576 99.4324 16.1616V7.76146C99.8241 7.58818 100.434 7.19642 101.482 7.19642C103.681 7.19642 105.776 8.71072 105.776 11.9126C105.776 15.0391 104.585 17.0431 102.145 17.0431Z" fill="#17171A"/>
</svg>
