<svg width="62" height="62" viewBox="0 0 62 62" fill="none" xmlns="http://www.w3.org/2000/svg">
<path d="M7.75033 28.8719C7.75033 26.3636 8.96432 24.0103 11.0084 22.5565L26.5084 11.5318C29.1976 9.61907 32.8031 9.61907 35.4923 11.5318L50.9923 22.5565C53.0363 24.0103 54.2503 26.3636 54.2503 28.8719V46.5C54.2503 50.7802 50.7805 54.25 46.5003 54.25H15.5003C11.2201 54.25 7.75033 50.7802 7.75033 46.5V28.8719Z" stroke="url(#paint0_linear)" stroke-width="5.16667"/>
<path d="M3.1 29.3347C3.1 25.7673 4.82657 22.4205 7.73365 20.3528L24.6114 8.34815C28.4361 5.6278 33.5639 5.6278 37.3886 8.34816L54.2664 20.3528C57.1734 22.4205 58.9 25.7673 58.9 29.3347V47.8778C58.9 53.9652 53.9652 58.9 47.8778 58.9H14.1222C8.03482 58.9 3.1 53.9652 3.1 47.8778V29.3347Z" stroke="url(#paint1_linear)" stroke-width="6.2"/>
<path d="M39.3957 44.4758C33.7677 44.4758 31.7687 39.3356 31.5996 36.637C35.1824 35.7696 40.0262 34.4203 44.7777 31.9786C44.2395 29.6334 43.0247 25.4088 37.4429 25.4088C34.3521 25.4088 31.2152 27.0472 29.3853 30.1796C29.0624 29.9065 28.6933 29.6655 28.2782 29.4567C23.865 27.3043 23.865 26.3726 23.865 25.5694C23.865 23.8989 25.3719 23.8667 25.4949 23.8667C27.6016 23.8667 28.4934 26.6457 28.6011 27.6095H30.1388C30.1388 26.1638 30.1388 24.702 29.8159 23.3045C28.9701 22.9029 27.6323 22.3889 25.4642 22.3889C21.1432 22.3889 19.0674 24.2362 19.0674 27.0633C19.0674 30.3081 21.8506 31.3361 23.9572 32.4766C25.7102 33.4404 26.2945 34.5166 26.2945 35.2074C26.2945 36.139 26.0331 37.0225 24.4493 37.0225C22.9424 37.0225 21.1279 35.3198 20.7742 32.2678H18.9443C18.9443 34.1954 19.2365 36.123 19.4518 37.3919C21.051 38.163 22.4503 38.5485 24.3724 38.5485C25.6333 38.5485 26.8174 38.4039 27.8476 38.0345C28.4473 43.3835 32.4761 46.5319 37.3198 46.4998C41.487 46.4677 43.732 43.8654 44.3932 43.2068L43.732 42.4037C43.1477 42.7249 41.9483 44.4758 39.3957 44.4758ZM36.2281 26.9187C39.3957 26.9187 40.4414 29.537 41.0257 32.2357C38.1041 33.2316 34.5981 34.1472 31.5996 34.7255C31.5996 31.5289 32.676 26.9187 36.2281 26.9187Z" fill="url(#paint2_linear)"/>
<defs>
<linearGradient id="paint0_linear" x1="31.0003" y1="5.16669" x2="31.0003" y2="56.8334" gradientUnits="userSpaceOnUse">
<stop stop-color="#F56A00"/>
<stop offset="1" stop-color="#F8AF77"/>
</linearGradient>
<linearGradient id="paint1_linear" x1="31" y1="0" x2="31" y2="62" gradientUnits="userSpaceOnUse">
<stop stop-color="#F8AF77"/>
<stop offset="1" stop-color="#F56A00"/>
</linearGradient>
<linearGradient id="paint2_linear" x1="31.861" y1="22.3889" x2="31.861" y2="46.5" gradientUnits="userSpaceOnUse">
<stop stop-color="#F56A00"/>
<stop offset="1" stop-color="#F56A00"/>
</linearGradient>
</defs>
</svg>
