<svg width="480" height="180" viewBox="0 0 480 180" fill="none" xmlns="http://www.w3.org/2000/svg">
<path d="M28.9744 129.186C27.8081 128.353 26.6418 127.687 25.4756 127.187C24.3648 126.687 23.2263 126.437 22.06 126.437C20.8382 126.437 19.6719 126.743 18.5612 127.354C17.4504 127.964 16.4507 128.881 15.5621 130.103C14.7291 131.324 14.0349 132.879 13.4795 134.768C12.9797 136.6 12.7298 138.794 12.7298 141.349C12.7298 146.403 13.5628 150.152 15.2289 152.595C16.9506 155.039 19.061 156.261 21.5602 156.261C22.782 156.261 24.0038 156.011 25.2256 155.511C26.503 154.956 27.7526 154.261 28.9744 153.428V129.186ZM45.1358 157.843V161.509L29.9741 162.342L29.3076 157.427C27.6415 159.149 25.8366 160.481 23.8927 161.426C21.9489 162.314 19.6997 162.759 17.145 162.759C14.8124 162.759 12.6187 162.314 10.5638 161.426C8.56445 160.537 6.81503 159.204 5.31552 157.427C3.87155 155.65 2.73304 153.456 1.89998 150.846C1.06692 148.18 0.650391 145.098 0.650391 141.599C0.650391 138.267 1.09468 135.268 1.98328 132.602C2.92741 129.936 4.20477 127.687 5.81535 125.854C7.42593 123.966 9.28643 122.522 11.3969 121.522C13.5628 120.522 15.8954 120.023 18.3945 120.023C20.7271 120.023 22.782 120.411 24.5592 121.189C26.3364 121.966 27.947 123.077 29.3909 124.521V109.443L22.7265 108.61V105.277L39.471 101.529L40.6372 102.195L40.304 114.025V156.844L45.1358 157.843Z" fill="black"/>
<path d="M70.6293 140.016C69.5741 140.294 68.5744 140.599 67.6303 140.932C66.7417 141.21 65.9642 141.488 65.2977 141.765C62.8541 142.71 61.1602 143.904 60.2161 145.348C59.2719 146.792 58.7999 148.402 58.7999 150.179C58.7999 151.29 58.9387 152.179 59.2164 152.845C59.5496 153.512 59.9384 154.067 60.3827 154.511C61.549 155.678 63.104 156.261 65.0478 156.261C65.9364 156.261 66.7972 156.122 67.6303 155.844C68.4634 155.511 69.463 154.928 70.6293 154.095V140.016ZM89.1232 156.261C88.0125 158.538 86.7351 160.121 85.2912 161.009C83.9027 161.898 82.1533 162.342 80.0429 162.342C77.7659 162.342 75.8776 161.898 74.3781 161.009C72.8786 160.121 71.8234 158.954 71.2125 157.51C69.3242 159.232 67.4915 160.537 65.7143 161.426C63.9926 162.314 61.8267 162.759 59.2164 162.759C55.8842 162.759 53.1628 161.925 51.0524 160.259C48.9975 158.538 47.9701 156.039 47.9701 152.762C47.9701 151.484 48.1645 150.235 48.5533 149.013C48.9976 147.736 49.7751 146.514 50.8858 145.348C52.0521 144.126 53.6349 142.959 55.6343 141.849C57.6336 140.738 60.2161 139.655 63.3817 138.6C64.3258 138.267 65.4366 137.933 66.7139 137.6C67.9913 137.211 69.2964 136.823 70.6293 136.434V133.935C70.6293 130.436 70.1017 127.937 69.0465 126.437C67.9913 124.938 66.1308 124.188 63.465 124.188C63.0207 124.188 62.5764 124.216 62.1321 124.271C61.7434 124.271 61.3268 124.299 60.8825 124.354L60.2161 129.186C59.9384 131.352 59.2719 132.963 58.2167 134.018C57.1615 135.073 55.9119 135.601 54.468 135.601C53.1906 135.601 52.0799 135.212 51.1357 134.435C50.2471 133.657 49.664 132.63 49.3863 131.352C49.7751 128.075 51.5245 125.382 54.6346 123.272C57.7447 121.106 61.9655 120.023 67.2971 120.023C69.9073 120.023 72.1288 120.328 73.9616 120.939C75.8498 121.494 77.3771 122.438 78.5434 123.771C79.7097 125.049 80.5705 126.77 81.1259 128.936C81.6812 131.047 81.9589 133.657 81.9589 136.767V153.928C81.9589 154.817 82.1255 155.539 82.4588 156.094C82.792 156.649 83.3196 156.927 84.0416 156.927C84.597 156.927 85.0413 156.761 85.3745 156.427C85.7077 156.094 86.0965 155.678 86.5408 155.178L86.9573 154.678L89.1232 156.261Z" fill="black"/>
<path d="M100.55 113.108C98.6622 113.108 97.0238 112.497 95.6354 111.275C94.3025 109.998 93.6361 108.388 93.6361 106.444C93.6361 104.5 94.3025 102.917 95.6354 101.695C97.0238 100.473 98.6622 99.8625 100.55 99.8625C102.494 99.8625 104.133 100.473 105.466 101.695C106.798 102.917 107.465 104.5 107.465 106.444C107.465 108.388 106.798 109.998 105.466 111.275C104.133 112.497 102.494 113.108 100.55 113.108ZM111.214 157.843V161.509H89.8873V157.843L94.969 156.844C95.0245 154.733 95.0523 152.512 95.0523 150.179C95.0523 147.847 95.0523 145.792 95.0523 144.015V139.849C95.0523 137.572 95.0245 135.684 94.969 134.185C94.9134 132.63 94.8579 131.019 94.8024 129.353L89.2209 128.603V125.437L105.382 120.023L106.632 120.856L106.382 132.768V144.015C106.382 145.792 106.382 147.875 106.382 150.263C106.382 152.595 106.41 154.789 106.465 156.844L111.214 157.843Z" fill="black"/>
<path d="M134.338 157.843V161.509H113.178V157.843L118.177 156.844C118.232 154.678 118.26 152.54 118.26 150.429C118.316 148.263 118.343 146.125 118.343 144.015V109.443L112.095 108.61V105.277L128.673 101.529L129.84 102.195L129.506 114.025V144.015C129.506 146.125 129.506 148.263 129.506 150.429C129.562 152.595 129.617 154.733 129.673 156.844L134.338 157.843Z" fill="black"/>
<path d="M177.373 125.188L172.041 126.104L158.629 162.592C156.519 168.368 154.325 172.672 152.048 175.504C149.771 178.392 146.827 179.836 143.217 179.836C142.107 179.836 141.024 179.697 139.968 179.42C138.969 179.198 138.08 178.837 137.303 178.337C136.525 177.837 135.886 177.226 135.387 176.504C134.942 175.782 134.72 174.949 134.72 174.005C135.164 172.561 135.859 171.533 136.803 170.923C137.747 170.367 138.913 170.089 140.302 170.089C141.246 170.089 142.19 170.256 143.134 170.589C144.134 170.923 145.189 171.589 146.3 172.589L147.716 173.838C148.882 172.783 149.937 171.533 150.882 170.089C151.881 168.645 152.825 166.896 153.714 164.841L138.052 126.187L133.304 125.188V121.522H156.047V125.188L150.215 126.354L158.962 150.263L167.459 126.187L162.128 125.188V121.522H177.373V125.188Z" fill="black"/>
<path d="M217.448 137.767C219.447 137.767 220.808 137.35 221.53 136.517C222.307 135.684 222.696 134.379 222.696 132.602C222.696 129.936 222.14 127.881 221.03 126.437C219.919 124.938 218.475 124.188 216.698 124.188C215.754 124.188 214.782 124.41 213.782 124.854C212.782 125.299 211.838 126.048 210.95 127.104C210.117 128.159 209.367 129.575 208.7 131.352C208.089 133.074 207.673 135.212 207.451 137.767H217.448ZM207.367 141.932C207.534 146.875 208.728 150.513 210.95 152.845C213.227 155.122 216.059 156.261 219.447 156.261C221.891 156.261 223.89 155.733 225.445 154.678C227.055 153.567 228.499 152.012 229.777 150.013L232.609 151.596C231.498 155.261 229.416 158.038 226.361 159.926C223.307 161.814 219.669 162.759 215.448 162.759C212.449 162.759 209.7 162.286 207.201 161.342C204.702 160.398 202.564 159.038 200.786 157.26C199.065 155.428 197.704 153.206 196.704 150.596C195.76 147.93 195.288 144.903 195.288 141.516C195.288 138.35 195.816 135.462 196.871 132.852C197.926 130.241 199.37 127.992 201.203 126.104C203.091 124.16 205.313 122.661 207.867 121.605C210.422 120.55 213.171 120.023 216.115 120.023C218.78 120.023 221.169 120.467 223.279 121.355C225.445 122.189 227.278 123.383 228.777 124.938C230.277 126.493 231.415 128.353 232.193 130.519C233.026 132.685 233.442 135.045 233.442 137.6C233.442 139.155 233.276 140.599 232.942 141.932H207.367Z" fill="black"/>
<path d="M259.128 136.85C261.294 137.628 263.099 138.489 264.543 139.433C265.987 140.321 267.126 141.293 267.959 142.349C268.792 143.404 269.375 144.542 269.708 145.764C270.042 146.93 270.208 148.18 270.208 149.513C270.208 151.512 269.792 153.317 268.959 154.928C268.126 156.538 266.931 157.927 265.376 159.093C263.821 160.259 261.961 161.148 259.795 161.759C257.629 162.425 255.185 162.759 252.464 162.759C249.576 162.759 247.021 162.425 244.8 161.759C242.634 161.092 240.385 160.093 238.052 158.76V149.18H244.467L245.55 156.427C246.827 157.149 247.993 157.677 249.048 158.01C250.159 158.288 251.298 158.427 252.464 158.427C255.13 158.427 257.074 157.982 258.295 157.094C259.573 156.205 260.211 154.844 260.211 153.012C260.211 152.234 260.073 151.568 259.795 151.012C259.573 150.401 259.156 149.846 258.545 149.346C257.934 148.846 257.101 148.347 256.046 147.847C255.047 147.347 253.741 146.792 252.131 146.181L248.299 144.681C244.966 143.404 242.44 141.765 240.718 139.766C239.052 137.711 238.219 135.212 238.219 132.269C238.219 128.603 239.607 125.66 242.384 123.438C245.216 121.161 249.493 120.023 255.213 120.023C257.712 120.023 259.934 120.3 261.878 120.856C263.821 121.411 265.821 122.189 267.876 123.188L267.376 132.352H261.045L259.795 125.437C259.073 125.16 258.323 124.91 257.546 124.688C256.768 124.466 255.824 124.354 254.713 124.354C252.714 124.354 251.103 124.827 249.882 125.771C248.66 126.659 248.049 127.909 248.049 129.519C248.049 130.13 248.16 130.714 248.382 131.269C248.604 131.769 249.021 132.269 249.632 132.768C250.243 133.268 251.076 133.768 252.131 134.268C253.242 134.768 254.63 135.295 256.296 135.851L259.128 136.85Z" fill="black"/>
<path d="M310.85 151.596C309.85 155.205 307.823 157.982 304.768 159.926C301.714 161.814 298.104 162.759 293.939 162.759C290.884 162.759 288.107 162.286 285.608 161.342C283.164 160.398 281.054 159.038 279.277 157.26C277.555 155.428 276.222 153.206 275.278 150.596C274.334 147.93 273.862 144.903 273.862 141.516C273.862 138.183 274.417 135.184 275.528 132.518C276.694 129.853 278.249 127.603 280.193 125.771C282.137 123.882 284.386 122.466 286.941 121.522C289.551 120.522 292.328 120.023 295.272 120.023C297.493 120.023 299.548 120.328 301.436 120.939C303.38 121.55 305.046 122.383 306.435 123.438C307.823 124.438 308.906 125.66 309.683 127.104C310.517 128.548 310.933 130.103 310.933 131.769C310.322 134.435 308.684 135.767 306.018 135.767C304.463 135.767 303.13 135.268 302.019 134.268C300.909 133.213 300.298 131.435 300.187 128.936L299.937 124.521C299.492 124.41 299.048 124.327 298.604 124.271C298.215 124.216 297.798 124.188 297.354 124.188C295.799 124.188 294.327 124.549 292.939 125.271C291.551 125.937 290.329 126.965 289.273 128.353C288.274 129.686 287.469 131.352 286.858 133.352C286.247 135.351 285.941 137.656 285.941 140.266C285.941 145.709 287.08 149.735 289.357 152.345C291.634 154.956 294.522 156.261 298.021 156.261C300.242 156.261 302.13 155.761 303.685 154.761C305.296 153.706 306.74 152.123 308.017 150.013L310.85 151.596Z" fill="black"/>
<path d="M337.007 140.016C335.952 140.294 334.952 140.599 334.008 140.932C333.12 141.21 332.342 141.488 331.676 141.765C329.232 142.71 327.538 143.904 326.594 145.348C325.65 146.792 325.178 148.402 325.178 150.179C325.178 151.29 325.317 152.179 325.594 152.845C325.927 153.512 326.316 154.067 326.76 154.511C327.927 155.678 329.482 156.261 331.426 156.261C332.314 156.261 333.175 156.122 334.008 155.844C334.841 155.511 335.841 154.928 337.007 154.095V140.016ZM355.501 156.261C354.39 158.538 353.113 160.121 351.669 161.009C350.281 161.898 348.531 162.342 346.421 162.342C344.144 162.342 342.255 161.898 340.756 161.009C339.256 160.121 338.201 158.954 337.59 157.51C335.702 159.232 333.869 160.537 332.092 161.426C330.37 162.314 328.204 162.759 325.594 162.759C322.262 162.759 319.541 161.925 317.43 160.259C315.375 158.538 314.348 156.039 314.348 152.762C314.348 151.484 314.542 150.235 314.931 149.013C315.375 147.736 316.153 146.514 317.264 145.348C318.43 144.126 320.013 142.959 322.012 141.849C324.011 140.738 326.594 139.655 329.76 138.6C330.704 138.267 331.814 137.933 333.092 137.6C334.369 137.211 335.674 136.823 337.007 136.434V133.935C337.007 130.436 336.48 127.937 335.424 126.437C334.369 124.938 332.509 124.188 329.843 124.188C329.399 124.188 328.954 124.216 328.51 124.271C328.121 124.271 327.705 124.299 327.26 124.354L326.594 129.186C326.316 131.352 325.65 132.963 324.595 134.018C323.539 135.073 322.29 135.601 320.846 135.601C319.568 135.601 318.458 135.212 317.514 134.435C316.625 133.657 316.042 132.63 315.764 131.352C316.153 128.075 317.902 125.382 321.012 123.272C324.122 121.106 328.343 120.023 333.675 120.023C336.285 120.023 338.507 120.328 340.339 120.939C342.228 121.494 343.755 122.438 344.921 123.771C346.087 125.049 346.948 126.77 347.504 128.936C348.059 131.047 348.337 133.657 348.337 136.767V153.928C348.337 154.817 348.503 155.539 348.837 156.094C349.17 156.649 349.697 156.927 350.419 156.927C350.975 156.927 351.419 156.761 351.752 156.427C352.086 156.094 352.474 155.678 352.919 155.178L353.335 154.678L355.501 156.261Z" fill="black"/>
<path d="M371.946 153.761C373.057 154.539 374.195 155.178 375.362 155.678C376.528 156.122 377.694 156.344 378.861 156.344C381.415 156.344 383.581 155.15 385.358 152.762C387.136 150.318 388.024 146.542 388.024 141.432C388.024 136.323 387.247 132.574 385.692 130.186C384.192 127.742 382.109 126.52 379.444 126.52C378.166 126.52 376.889 126.77 375.612 127.27C374.39 127.77 373.168 128.436 371.946 129.27V153.761ZM371.28 125.437C373.001 123.716 374.834 122.383 376.778 121.439C378.722 120.495 380.999 120.023 383.609 120.023C385.942 120.023 388.107 120.467 390.107 121.355C392.162 122.244 393.911 123.577 395.355 125.354C396.855 127.131 398.021 129.353 398.854 132.019C399.687 134.629 400.104 137.683 400.104 141.182C400.104 144.515 399.631 147.514 398.687 150.179C397.799 152.845 396.549 155.122 394.939 157.01C393.328 158.843 391.44 160.259 389.274 161.259C387.163 162.259 384.859 162.759 382.359 162.759C380.138 162.759 378.166 162.398 376.445 161.676C374.723 161.009 373.14 159.982 371.696 158.593V161.509C371.696 163.397 371.696 165.563 371.696 168.007C371.696 170.45 371.724 172.755 371.78 174.921L377.944 176.171V179.836H355.452V176.171L360.533 175.171C360.589 173.005 360.616 170.645 360.616 168.09C360.616 165.591 360.616 163.397 360.616 161.509V139.266C360.616 138.1 360.616 137.1 360.616 136.267C360.616 135.379 360.589 134.573 360.533 133.851C360.533 133.074 360.505 132.352 360.45 131.685C360.45 130.963 360.422 130.186 360.367 129.353L354.785 128.603V125.437L369.863 120.023L370.863 120.856L371.28 125.437Z" fill="black"/>
<path d="M426.939 137.767C428.938 137.767 430.299 137.35 431.021 136.517C431.799 135.684 432.187 134.379 432.187 132.602C432.187 129.936 431.632 127.881 430.521 126.437C429.411 124.938 427.967 124.188 426.189 124.188C425.245 124.188 424.273 124.41 423.274 124.854C422.274 125.299 421.33 126.048 420.441 127.104C419.608 128.159 418.858 129.575 418.192 131.352C417.581 133.074 417.165 135.212 416.942 137.767H426.939ZM416.859 141.932C417.026 146.875 418.22 150.513 420.441 152.845C422.718 155.122 425.551 156.261 428.938 156.261C431.382 156.261 433.381 155.733 434.936 154.678C436.547 153.567 437.991 152.012 439.268 150.013L442.101 151.596C440.99 155.261 438.907 158.038 435.853 159.926C432.798 161.814 429.161 162.759 424.94 162.759C421.941 162.759 419.192 162.286 416.692 161.342C414.193 160.398 412.055 159.038 410.278 157.26C408.556 155.428 407.196 153.206 406.196 150.596C405.252 147.93 404.78 144.903 404.78 141.516C404.78 138.35 405.307 135.462 406.363 132.852C407.418 130.241 408.862 127.992 410.694 126.104C412.583 124.16 414.804 122.661 417.359 121.605C419.914 120.55 422.663 120.023 425.606 120.023C428.272 120.023 430.66 120.467 432.771 121.355C434.936 122.189 436.769 123.383 438.269 124.938C439.768 126.493 440.907 128.353 441.684 130.519C442.517 132.685 442.934 135.045 442.934 137.6C442.934 139.155 442.767 140.599 442.434 141.932H416.859Z" fill="black"/>
<path d="M468.62 136.85C470.786 137.628 472.591 138.489 474.035 139.433C475.479 140.321 476.617 141.293 477.45 142.349C478.284 143.404 478.867 144.542 479.2 145.764C479.533 146.93 479.7 148.18 479.7 149.513C479.7 151.512 479.283 153.317 478.45 154.928C477.617 156.538 476.423 157.927 474.868 159.093C473.313 160.259 471.452 161.148 469.287 161.759C467.121 162.425 464.677 162.759 461.956 162.759C459.068 162.759 456.513 162.425 454.291 161.759C452.125 161.092 449.876 160.093 447.544 158.76V149.18H453.958L455.041 156.427C456.319 157.149 457.485 157.677 458.54 158.01C459.651 158.288 460.789 158.427 461.956 158.427C464.621 158.427 466.565 157.982 467.787 157.094C469.064 156.205 469.703 154.844 469.703 153.012C469.703 152.234 469.564 151.568 469.287 151.012C469.064 150.401 468.648 149.846 468.037 149.346C467.426 148.846 466.593 148.347 465.538 147.847C464.538 147.347 463.233 146.792 461.622 146.181L457.79 144.681C454.458 143.404 451.931 141.765 450.209 139.766C448.543 137.711 447.71 135.212 447.71 132.269C447.71 128.603 449.099 125.66 451.876 123.438C454.708 121.161 458.984 120.023 464.705 120.023C467.204 120.023 469.425 120.3 471.369 120.856C473.313 121.411 475.312 122.189 477.367 123.188L476.867 132.352H470.536L469.287 125.437C468.565 125.16 467.815 124.91 467.037 124.688C466.26 124.466 465.316 124.354 464.205 124.354C462.206 124.354 460.595 124.827 459.373 125.771C458.151 126.659 457.54 127.909 457.54 129.519C457.54 130.13 457.651 130.714 457.874 131.269C458.096 131.769 458.512 132.269 459.123 132.768C459.734 133.268 460.567 133.768 461.622 134.268C462.733 134.768 464.122 135.295 465.788 135.851L468.62 136.85Z" fill="black"/>
<path fill-rule="evenodd" clip-rule="evenodd" d="M268.298 60.1681V35.842C268.298 33.5344 267.181 31.3695 265.301 30.032L243.911 14.8184C241.437 13.0588 238.12 13.0588 235.646 14.8184L214.257 30.032C212.377 31.3695 211.26 33.5344 211.26 35.842V60.1681C211.26 64.1058 214.452 67.2979 218.389 67.2979H261.168C265.106 67.2979 268.298 64.1058 268.298 60.1681ZM210.124 24.222C206.364 26.897 204.13 31.2268 204.13 35.842V60.1681C204.13 68.0434 210.514 74.4277 218.389 74.4277H261.168C269.044 74.4277 275.428 68.0434 275.428 60.1681V35.842C275.428 31.2268 273.194 26.897 269.433 24.222L248.044 9.00842C243.096 5.48906 236.462 5.48905 231.514 9.00841L210.124 24.222Z" fill="url(#paint0_linear)"/>
<path fill-rule="evenodd" clip-rule="evenodd" d="M274.002 62.0694V36.4807C274.002 32.9424 272.289 29.6229 269.406 27.572L246.115 11.0061C242.322 8.30796 237.236 8.30796 233.442 11.0061L210.152 27.572C207.268 29.6229 205.556 32.9424 205.556 36.4807V62.0694C205.556 68.1071 210.45 73.0017 216.488 73.0017H263.069C269.107 73.0017 274.002 68.1071 274.002 62.0694ZM205.193 20.6C200.053 24.2558 197 30.1732 197 36.4807V62.0694C197 72.8323 205.725 81.5574 216.488 81.5574H263.069C273.832 81.5574 282.557 72.8323 282.557 62.0694V36.4807C282.557 30.1733 279.505 24.2558 274.365 20.6L251.074 4.0341C244.312 -0.775689 235.246 -0.775689 228.483 4.0341L205.193 20.6Z" fill="url(#paint1_linear)"/>
<path d="M251.365 57.3748C243.598 57.3748 240.84 50.2815 240.606 46.5575C245.55 45.3605 252.235 43.4985 258.792 40.1292C258.049 36.8929 256.372 31.0631 248.67 31.0631C244.405 31.0631 240.076 33.3241 237.551 37.6465C237.105 37.2697 236.596 36.9372 236.023 36.649C229.933 33.6787 229.933 32.3931 229.933 31.2847C229.933 28.9794 232.012 28.9351 232.182 28.9351C235.089 28.9351 236.32 32.7699 236.468 34.0999H238.59C238.59 32.1049 238.59 30.0877 238.145 28.1592C236.978 27.6051 235.132 26.8958 232.14 26.8958C226.177 26.8958 223.312 29.4449 223.312 33.3462C223.312 37.8239 227.153 39.2425 230.06 40.8163C232.479 42.1463 233.286 43.6315 233.286 44.5847C233.286 45.8703 232.925 47.0895 230.739 47.0895C228.66 47.0895 226.156 44.7398 225.668 40.5282H223.143C223.143 43.1882 223.546 45.8482 223.843 47.5993C226.05 48.6633 227.981 49.1953 230.633 49.1953C232.373 49.1953 234.007 48.9958 235.429 48.486C236.256 55.8674 241.816 60.2121 248.5 60.1678C254.251 60.1234 257.349 56.5324 258.261 55.6236L257.349 54.5153C256.542 54.9586 254.887 57.3748 251.365 57.3748ZM246.993 33.1467C251.365 33.1467 252.808 36.7599 253.614 40.4839C249.582 41.8582 244.744 43.1217 240.606 43.9197C240.606 39.5085 242.092 33.1467 246.993 33.1467Z" fill="url(#paint2_linear)"/>
<defs>
<linearGradient id="paint0_linear" x1="239.779" y1="3.12988" x2="239.779" y2="74.4278" gradientUnits="userSpaceOnUse">
<stop stop-color="#F56A00"/>
<stop offset="1" stop-color="#F8AF77"/>
</linearGradient>
<linearGradient id="paint1_linear" x1="239.779" y1="-4" x2="239.779" y2="81.5574" gradientUnits="userSpaceOnUse">
<stop stop-color="#F8AF77"/>
<stop offset="1" stop-color="#F56A00"/>
</linearGradient>
<linearGradient id="paint2_linear" x1="240.967" y1="26.8958" x2="240.967" y2="60.1681" gradientUnits="userSpaceOnUse">
<stop stop-color="#FA8C38"/>
<stop offset="1" stop-color="#F56A00"/>
</linearGradient>
</defs>
</svg>
