<?xml version="1.0" encoding="utf-8"?>
<!-- Generator: Adobe Illustrator 20.0.0, SVG Export Plug-In . SVG Version: 6.00 Build 0)  -->
<svg version="1.1" id="Layer_1" xmlns="http://www.w3.org/2000/svg" xmlns:xlink="http://www.w3.org/1999/xlink" x="0px" y="0px"
	 viewBox="0 0 200 200" style="enable-background:new 0 0 200 200;" xml:space="preserve">
<style type="text/css">
	.st0{fill:#FFFFFF;}
	.st1{font-family:'OpenSans-Bold';}
	.st2{font-size:23px;}
</style>
<g>
	<path class="st0" d="M137.5,113.3c0,0-21.8-0.3-32.7-21.9C89.8,61.5,121,45.5,121,45.5l27.7,4.9L137.5,113.3"/>
	<g>
		<polygon class="st0" points="69.3,120.6 74,121.4 72.4,117.3 		"/>
		<path class="st0" d="M107.2,122.8c-1.5-0.3-2.8-0.2-3.8,0.2c-1,0.4-1.6,1.1-1.8,2.2c-0.2,1,0.1,1.9,0.9,2.7c0.8,0.7,2,1.2,3.5,1.5
			s2.8,0.2,3.8-0.2s1.6-1.1,1.8-2.2c0.2-1-0.1-1.9-0.9-2.7C109.9,123.5,108.8,123,107.2,122.8z"/>
		<path class="st0" d="M93.5,101.9c-18.2-19-18.4-41.7-6.9-62.4l-15.2-2.7L54.5,133l77.1,13.6l5.1-28.7
			C136.7,117.9,111.8,120.9,93.5,101.9z M75.6,125.3l-0.8-2.1L68,122l-1.6,1.7l-4-0.7l8.2-8.1l4.3,0.8l4.9,10.4L75.6,125.3z
			 M96.8,121.2l-5.5-1l-1.4,7.6l-3.9-0.7l1.4-7.6l-5.5-1l0.3-1.6l14.9,2.6L96.8,121.2z M115.5,127.6c-0.3,1.7-1.4,2.8-3.5,3.3
			c-1.5,0.5-3.6,0.5-6.2,0s-4.6-1.2-5.8-2.2c-1.7-1.2-2.4-2.7-2.1-4.3c0.3-1.7,1.5-2.8,3.5-3.3c1.5-0.5,3.6-0.5,6.2,0
			s4.6,1.2,5.8,2.2C115.1,124.4,115.8,125.9,115.5,127.6z M130.5,135.1l-12.9-2.3l1.6-9.3l3.8,0.7l-1.4,7.6l9.1,1.6L130.5,135.1z"/>
	</g>
	<path class="st0" d="M194,116.7L194,116.7 M85,187.8c-48.3-8.5-80.6-54.7-72.1-103S67.6,4.1,115.8,12.7
		c48.3,8.5,80.6,54.7,72.1,103C179.5,163.9,133.3,196.3,85,187.8z M6.9,83.7c-9.1,51.6,25.5,101,77.1,110.1
		c51.6,9.1,100.9-25.5,110-77.1c1-5.6,1.5-11.1,1.5-16.6c0-45.2-32.5-85.5-78.5-93.6C65.4-2.5,16,32.1,6.9,83.7z"/>
	<path class="st0" d="M29,118c0.2,0.6,0.4,1.3,0.7,1.8c1,1.7,2.8,1.9,4.5,1.5c2.3-0.6,3.4-2.2,3-3.6l-0.5-1.7L29,118 M19,120.7
		c-0.1-0.7-0.2-1.4-0.4-2.2c-0.2-0.7-0.5-1.4-0.7-2.1l19.3-5.3l1.9,6.9c1.1,3.9,0.1,6.5-3.1,7.3c-5,1.4-7.1-2-8.5-7.1L19,120.7z"/>
	<path class="st0" d="M36,135.3c1.3,2.8,3.3,3.4,5.9,1.8c0.4-0.2,0.7-0.5,1.2-0.9c1.9-1.6,0.5-3.4-0.4-4.9L36,135.3 M41.9,126.8
		l3.1,5.4c0.7,1.2,1.8,3,1.9,4.4c0.1,1.9-0.6,3.3-2.3,4.3c-2.5,1.4-5,0.8-6.8-1.3c-1.6,2.8-3,5.7-4.5,8.6l-1,1.9
		c-0.4-0.8-0.8-1.6-1.2-2.4c-0.4-0.8-1-1.5-1.5-2.2l3.5-6.1c0.5-0.8,1.2-2.2,1.8-3.3l-0.1-0.2l-8.1,4.7c-0.3-0.7-0.6-1.3-1-2
		c-0.4-0.6-0.8-1.2-1.2-1.8L41.9,126.8z"/>
	<path class="st0" d="M46.5,152.4c-2.5,2.9-3.9,7-0.6,9.9c3.4,3,7.8,0.9,11-2.7c2.5-2.8,4-7.2,0.7-10.1
		C54.7,146.8,50.8,147.5,46.5,152.4 M44.7,163.6c-4.8-4.2-5.6-10-1.3-15c3.8-4.4,10.1-5.1,15.6-0.3c6.3,5.5,4.2,11.5,1.3,14.9
		C56.6,167.5,50.1,168.3,44.7,163.6z"/>
	<path class="st0" d="M69.2,178.2c-0.6-0.3-1.3-0.7-1.9-1c-0.7-0.3-1.4-0.5-2.1-0.7l7.1-16.5c-1.9-0.8-3.7-1.4-5.1-1.8
		c0.2-0.4,0.5-0.7,0.6-1.1c0.2-0.4,0.2-0.8,0.4-1.2l13.8,6c-0.2,0.4-0.5,0.7-0.6,1.1c-0.2,0.4-0.3,0.8-0.4,1.2
		c-1.5-0.9-3-1.7-4.6-2.4L69.2,178.2"/>
	<path class="st0" d="M95.8,164.4c-0.1,0.4-0.3,0.8-0.3,1.2c-0.1,0.4-0.1,0.9-0.1,1.3c-1.7-0.5-3.6-1.1-6.6-1.5l-1,6.2l3,0.5
		c1.3,0.2,2.5,0.3,3.6,0.3c-0.1,0.4-0.3,0.8-0.4,1.2s-0.1,0.8-0.1,1.3c-1-0.3-2.2-0.6-3.5-0.9l-3-0.5l-1.2,7.3
		c2.9,0.5,4.9,0.7,6.7,0.7c-0.1,0.4-0.3,0.8-0.4,1.2s-0.1,0.8-0.1,1.3l-11-1.9l3.3-19.6L95.8,164.4"/>
	<path class="st0" d="M116.7,179.7l-0.4,2.6c-1.7,1.1-3.7,1.6-5.6,1.8c-6.2,0.6-11.3-2.8-11.9-8.7c-0.7-7.6,4.2-11.5,10.5-12.2
		c1.9-0.2,4.3,0.1,6.1,0.9c-0.2,1-0.2,2-0.4,3.1h-0.4c-1.2-1.5-3.2-2.4-5.1-2.2c-4.8,0.5-6.3,5.3-5.9,9.5c0.5,5,3.3,8.2,7.7,7.8
		c1.8-0.2,3.8-1.3,5-2.7L116.7,179.7"/>
	<path class="st0" d="M133.2,177.7c-0.7,0.2-1.4,0.4-2.1,0.7c-0.7,0.3-1.3,0.6-2,0.9l-6.5-16.7c-1.9,0.8-3.6,1.6-4.9,2.4
		c-0.1-0.4-0.2-0.8-0.3-1.2c-0.1-0.4-0.4-0.7-0.6-1.1l14-5.5c0.1,0.4,0.2,0.8,0.3,1.2c0.2,0.4,0.4,0.8,0.6,1.1
		c-1.7,0.4-3.4,0.9-5,1.5L133.2,177.7"/>
	<path class="st0" d="M142.3,149c0.2,0.4,0.4,0.8,0.6,1.1c0.2,0.3,0.6,0.6,0.8,0.9c-1.6,0.8-3.3,1.8-5.7,3.6l3.6,5.1l2.5-1.8
		c1.1-0.8,2-1.5,2.8-2.3c0.2,0.4,0.4,0.8,0.6,1.1c0.2,0.3,0.6,0.6,0.8,0.9c-1,0.5-2,1.1-3.1,1.9l-2.5,1.8l4.3,6.1
		c2.4-1.7,3.9-3,5.3-4.2c0.2,0.4,0.4,0.8,0.6,1.1c0.2,0.3,0.6,0.6,0.8,0.9l-9.1,6.4l-11.4-16.2L142.3,149"/>
	<path class="st0" d="M162.2,154.7l1.5-1.9c2.5-3.2,2.8-6.8-2.5-11c-4.3-3.4-7.6-2.7-10.2,0.5l-1.8,2.2L162.2,154.7 M151.4,139
		c4.1-4.8,9.1-4.1,12.8-1.1c5.2,4.1,5.4,10.2,1.7,14.8l-5.1,6.4l-15.6-12.3L151.4,139z"/>
</g>
<text transform="matrix(0.9849 0.173 -0.173 0.9849 77.8003 32.0454)" class="st0 st1 st2">11257</text>
</svg>
