<?xml version="1.0" encoding="utf-8"?>
<!-- Generator: Adobe Illustrator 22.1.0, SVG Export Plug-In . SVG Version: 6.00 Build 0)  -->
<svg version="1.1" id="Layer_1" xmlns="http://www.w3.org/2000/svg" xmlns:xlink="http://www.w3.org/1999/xlink" x="0px" y="0px"
	 width="170.1px" height="170.1px" viewBox="0 0 170.1 170.1" style="enable-background:new 0 0 170.1 170.1;" xml:space="preserve"
	>
<style type="text/css">
	.st0{fill:none;stroke:#47484A;stroke-width:4.8597;}
</style>
<g>
	<path class="st0" d="M14.4,164.9V88.8c-0.3-10.9,1.2-21.2,4.7-30.8c3.5-9.6,8.4-18.1,14.7-25.4c6.3-7.3,13.8-13.3,22.6-18.2
		C65.2,9.6,74.8,6.5,85,5.2V38c-12.6,4.3-21.2,10.7-25.9,19.1c-4.6,8.5-7,18.8-7,31.1H85v76.6H14.4z"/>
	<path class="st0" d="M104.5,32.6c6.3-7.3,13.8-13.3,22.6-18.2c8.8-4.8,18.3-7.9,28.6-9.2V38c-12.6,4.3-21.2,10.7-25.9,19.1
		c-4.6,8.5-7,18.8-7,31.1h32.8v76.6H104"/>
</g>
</svg>
