<?xml version="1.0" encoding="utf-8"?>
<!-- Generator: Adobe Illustrator 22.1.0, SVG Export Plug-In . SVG Version: 6.00 Build 0)  -->
<svg version="1.1" id="Layer_1" xmlns="http://www.w3.org/2000/svg" xmlns:xlink="http://www.w3.org/1999/xlink" x="0px" y="0px"
	 width="186.8px" height="224.1px" viewBox="0 0 186.8 224.1" style="enable-background:new 0 0 186.8 224.1;" xml:space="preserve"
	>
<style type="text/css">
	.st0{fill:none;stroke:#1A1A1A;stroke-width:4;stroke-linecap:round;stroke-linejoin:round;stroke-miterlimit:10;}
	.st1{fill:none;stroke:#1A1A1A;stroke-width:2;stroke-linecap:round;stroke-linejoin:round;stroke-miterlimit:10;}
	.st2{fill:none;stroke:#FF8C00;stroke-width:2;stroke-linecap:round;stroke-linejoin:round;stroke-miterlimit:10;}
</style>
<g>
	<path class="st0" d="M146.7,86.6c-5.1-24.8-27-43.4-53.3-43.4S45.2,61.8,40.1,86.6c-0.7,3.5-1.1,7.2-1.1,11
		c0,16.7,6.3,28.4,15.7,40.7c10.5,13.7,14.5,26.6,15.1,38V197v13.7c0,6.3,5.1,11.4,11.4,11.4h24.4c6.3,0,11.4-5.1,11.4-11.4V197
		v-20.8c0.6-11.4,4.6-24.3,15.1-38c9.3-12.2,15.7-23.9,15.7-40.7C147.8,93.8,147.4,90.1,146.7,86.6z"/>
	<line class="st1" x1="69.8" y1="174.3" x2="117" y2="174.3"/>
	<line class="st1" x1="70.1" y1="193.8" x2="116.6" y2="202"/>
	<line class="st1" x1="70.1" y1="182.9" x2="116.6" y2="191"/>
	<line class="st1" x1="70.1" y1="204.8" x2="116.6" y2="212.9"/>
	<path class="st1" d="M56.2,74.7c-2.8,4.4-4.9,9.4-6,14.7"/>
	<path class="st1" d="M136.5,89.4c-4.1-20.1-21.8-35.1-43.1-35.1"/>
	<path class="st1" d="M134.5,114.4c1.8-4.8,2.8-10.1,2.8-16.1"/>
	<line class="st2" x1="161" y1="93.4" x2="185.8" y2="93.4"/>
	<line class="st2" x1="1" y1="93.4" x2="25.7" y2="93.4"/>
	<line class="st2" x1="93.4" y1="1" x2="93.4" y2="25.7"/>
	<line class="st2" x1="141.2" y1="45.5" x2="158.7" y2="28.1"/>
	<line class="st2" x1="28.1" y1="28.1" x2="45.5" y2="45.5"/>
	<line class="st2" x1="155.9" y1="67.5" x2="167.3" y2="62.8"/>
	<line class="st2" x1="19.5" y1="124" x2="30.9" y2="119.3"/>
	<line class="st2" x1="62.8" y1="19.5" x2="67.5" y2="30.9"/>
	<line class="st2" x1="119.3" y1="30.9" x2="124" y2="19.5"/>
	<line class="st2" x1="155.9" y1="119.3" x2="167.3" y2="124"/>
	<line class="st2" x1="19.5" y1="62.8" x2="30.9" y2="67.5"/>
	<path class="st1" d="M100.3,161.3c0,0,5.5-57.8,5.8-58.6c1-2.6,3.5-4.4,6.4-4.4c3.8,0,6.9,3.1,6.9,6.9s-3.1,6.9-6.9,6.9H74.3
		c-3.8,0-6.9-3.1-6.9-6.9s3.1-6.9,6.9-6.9c2.9,0,5.4,1.8,6.4,4.4c0.3,0.8,5.8,58.6,5.8,58.6"/>
	<path class="st1" d="M93.4,159.6c-8.1,0-14.7,6.6-14.7,14.7h29.4C108.1,166.2,101.5,159.6,93.4,159.6z"/>
</g>
</svg>
